<svg width="40" height="40" viewBox="0 0 40 40" fill="none" xmlns="http://www.w3.org/2000/svg">
<path fill-rule="evenodd" clip-rule="evenodd" d="M2.35294 0C1.05345 0 0 0.994924 0 2.22222V39C0 39.5523 0.447716 40 1 40H6.6145C6.85989 40 7.05882 39.8011 7.05882 39.5557V32.2222C7.05882 31.6086 7.58555 31.1111 8.23529 31.1111H12.9412C13.5909 31.1111 14.1176 31.6086 14.1176 32.2222V39.5557C14.1176 39.8011 14.3166 40 14.562 40H21.1765V2.22222C21.1765 0.994923 20.123 0 18.8235 0H2.35294ZM4.70588 5.55556C4.70588 4.94191 5.23261 4.44444 5.88235 4.44444H8.23529C8.88504 4.44444 9.41176 4.94191 9.41176 5.55556V7.77778C9.41176 8.39143 8.88504 8.88889 8.23529 8.88889H5.88235C5.23261 8.88889 4.70588 8.39143 4.70588 7.77778V5.55556ZM5.88235 11.1111C5.23261 11.1111 4.70588 11.6086 4.70588 12.2222V14.4444C4.70588 15.0581 5.23261 15.5556 5.88235 15.5556H8.23529C8.88504 15.5556 9.41176 15.0581 9.41176 14.4444V12.2222C9.41176 11.6086 8.88504 11.1111 8.23529 11.1111H5.88235ZM4.70588 18.8889C4.70588 18.2752 5.23261 17.7778 5.88235 17.7778H8.23529C8.88504 17.7778 9.41176 18.2752 9.41176 18.8889V21.1111C9.41176 21.7248 8.88504 22.2222 8.23529 22.2222H5.88235C5.23261 22.2222 4.70588 21.7248 4.70588 21.1111V18.8889ZM12.9412 4.44444C12.2914 4.44444 11.7647 4.94191 11.7647 5.55556V7.77778C11.7647 8.39143 12.2914 8.88889 12.9412 8.88889H15.2941C15.9439 8.88889 16.4706 8.39143 16.4706 7.77778V5.55556C16.4706 4.94191 15.9439 4.44444 15.2941 4.44444H12.9412ZM11.7647 12.2222C11.7647 11.6086 12.2914 11.1111 12.9412 11.1111H15.2941C15.9439 11.1111 16.4706 11.6086 16.4706 12.2222V14.4444C16.4706 15.0581 15.9439 15.5556 15.2941 15.5556H12.9412C12.2914 15.5556 11.7647 15.0581 11.7647 14.4444V12.2222ZM12.9412 17.7778C12.2914 17.7778 11.7647 18.2752 11.7647 18.8889V21.1111C11.7647 21.7248 12.2914 22.2222 12.9412 22.2222H15.2941C15.9439 22.2222 16.4706 21.7248 16.4706 21.1111V18.8889C16.4706 18.2752 15.9439 17.7778 15.2941 17.7778H12.9412Z" fill="#3258E8"/>
<path fill-rule="evenodd" clip-rule="evenodd" d="M37.6407 4.70587H21.1765V39.9928H26.6122C26.8576 39.9928 27.0565 39.7939 27.0565 39.5485V33.3765C27.0565 32.7675 27.5831 32.2738 28.2326 32.2738H32.9366C33.5861 32.2738 34.1126 32.7675 34.1126 33.3765V39.5485C34.1126 39.7939 34.3115 39.9928 34.5569 39.9928H37.6407C40.2548 39.9928 39.9927 40.2432 39.9927 37.7874V6.9113C39.9927 5.69328 38.9396 4.70587 37.6407 4.70587ZM25.8805 8.01402C25.231 8.01402 24.7045 8.50772 24.7045 9.11674V11.3222C24.7045 11.9312 25.231 12.4249 25.8805 12.4249H28.2326C28.882 12.4249 29.4086 11.9312 29.4086 11.3222V9.11674C29.4086 8.50772 28.882 8.01402 28.2326 8.01402H25.8805ZM24.7045 15.733C24.7045 15.124 25.231 14.6303 25.8805 14.6303H28.2326C28.882 14.6303 29.4086 15.124 29.4086 15.733V17.9385C29.4086 18.5475 28.882 19.0412 28.2326 19.0412H25.8805C25.231 19.0412 24.7045 18.5475 24.7045 17.9385V15.733ZM25.8805 21.2466C25.231 21.2466 24.7045 21.7403 24.7045 22.3493V24.5548C24.7045 25.1638 25.231 25.6575 25.8805 25.6575H28.2326C28.882 25.6575 29.4086 25.1638 29.4086 24.5548V22.3493C29.4086 21.7403 28.882 21.2466 28.2326 21.2466H25.8805ZM32.9366 8.01402C32.2871 8.01402 31.7606 8.50772 31.7606 9.11674V11.3222C31.7606 11.9312 32.2871 12.4249 32.9366 12.4249H35.2886C35.9381 12.4249 36.4646 11.9312 36.4646 11.3222V9.11674C36.4646 8.50772 35.9381 8.01402 35.2886 8.01402H32.9366ZM31.7606 15.733C31.7606 15.124 32.2871 14.6303 32.9366 14.6303H35.2886C35.9381 14.6303 36.4646 15.124 36.4646 15.733V17.9385C36.4646 18.5475 35.9381 19.0412 35.2886 19.0412H32.9366C32.2871 19.0412 31.7606 18.5475 31.7606 17.9385V15.733ZM32.9366 21.2466C32.2871 21.2466 31.7606 21.7403 31.7606 22.3493V24.5548C31.7606 25.1638 32.2871 25.6575 32.9366 25.6575H35.2886C35.9381 25.6575 36.4646 25.1638 36.4646 24.5548V22.3493C36.4646 21.7403 35.9381 21.2466 35.2886 21.2466H32.9366Z" fill="#FEB137"/>
</svg>
