<svg width="20" height="21" viewBox="0 0 20 21" fill="none" xmlns="http://www.w3.org/2000/svg">
<path fill-rule="evenodd" clip-rule="evenodd" d="M4.54553 2.31819V0.5H6.04553V2.31819H13.7878V0.5H15.2878V2.31819H16.3636C18.3719 2.31819 20 3.94625 20 5.95456V8.22727V9.59091V16.8636C20 18.872 18.3719 20.5 16.3636 20.5H3.63636C1.62806 20.5 0 18.872 0 16.8636V9.59091V8.22727V5.95455C0 3.94625 1.62806 2.31819 3.63636 2.31819H4.54553ZM4.54553 3.68183H3.63636C2.38117 3.68183 1.36364 4.69936 1.36364 5.95455V8.22727H18.6364V5.95456C18.6364 4.69936 17.6188 3.68183 16.3636 3.68183H15.2878V5.95455H13.7878V3.68183H6.04553V5.95455H4.54553V3.68183ZM18.6364 16.8636V9.59091H1.36364V16.8636C1.36364 18.1188 2.38117 19.1364 3.63636 19.1364H16.3636C17.6188 19.1364 18.6364 18.1188 18.6364 16.8636Z" fill="#848484"/>
</svg>
