<svg width="32" height="46" viewBox="0 0 32 46" fill="none" xmlns="http://www.w3.org/2000/svg">
<circle cx="12.0337" cy="9.00001" r="6.3" fill="#FEB137"/>
<circle cx="12.0337" cy="9" r="8.5" stroke="#FEB137"/>
<path d="M12.427 6.5C10.9563 6.5 9.76403 7.69223 9.76403 9.16292V22.4775V28.691L5.02339 23.9504C4.17828 23.1053 2.84035 23.0102 1.88422 23.7273C0.8377 24.5122 0.611834 25.9902 1.37619 27.0518L7.98875 36.236C7.98875 36.236 8.43257 38.4551 13.7584 40.6742V45.1124C13.7584 45.6026 14.1558 46 14.6461 46H17.7528H20.8595H23.0786H28.4045C28.8947 46 29.2921 45.6026 29.2921 45.1124V40.6742C30.1798 38.4551 31.0674 36.236 31.0674 33.573V20.7022C31.0674 19.2316 29.8752 18.0393 28.4045 18.0393C26.9338 18.0393 25.7416 19.2316 25.7416 20.7022V18.927C25.7416 17.4563 24.5493 16.264 23.0786 16.264C21.6079 16.264 20.4157 17.4563 20.4157 18.927V18.0393C20.4157 16.5686 19.2235 15.3764 17.7528 15.3764C16.2821 15.3764 15.0899 16.5686 15.0899 18.0393V9.16292C15.0899 7.69223 13.8976 6.5 12.427 6.5Z" fill="#3258E8"/>
</svg>
