<svg width="20" height="19" viewBox="0 0 20 19" fill="none" xmlns="http://www.w3.org/2000/svg">
<path fill-rule="evenodd" clip-rule="evenodd" d="M10.5 0.5C10.5 0.223858 10.2761 0 10 0C9.72386 0 9.5 0.223858 9.5 0.5V2.0164C5.75625 2.26282 2.76282 5.25625 2.5164 9H1C0.723858 9 0.5 9.22386 0.5 9.5C0.5 9.77614 0.723858 10 1 10H2.5164C2.76282 13.7438 5.75625 16.7372 9.5 16.9836V18.5C9.5 18.7761 9.72386 19 10 19C10.2761 19 10.5 18.7761 10.5 18.5V16.9836C14.2438 16.7372 17.2372 13.7438 17.4836 10H19C19.2761 10 19.5 9.77614 19.5 9.5C19.5 9.22386 19.2761 9 19 9H17.4836C17.2372 5.25625 14.2438 2.26282 10.5 2.0164V0.5ZM10 3C6.41015 3 3.5 5.91015 3.5 9.5C3.5 13.0899 6.41015 16 10 16C13.5899 16 16.5 13.0899 16.5 9.5C16.5 5.91015 13.5899 3 10 3ZM10 14C12.4853 14 14.5 11.9853 14.5 9.5C14.5 7.01472 12.4853 5 10 5C7.51472 5 5.5 7.01472 5.5 9.5C5.5 11.9853 7.51472 14 10 14Z" fill="#3258E8"/>
</svg>
