<svg width="48" height="34" viewBox="0 0 48 34" fill="none" xmlns="http://www.w3.org/2000/svg">
<ellipse cx="36" cy="12.1429" rx="12" ry="12.1429" fill="#FEB137"/>
<path fill-rule="evenodd" clip-rule="evenodd" d="M43.0254 21.9883C46.0391 19.7824 48 16.1943 48 12.1429C48 5.43654 42.6274 0 36 0C32.019 0 28.4909 1.96157 26.3079 4.98164C28.2827 3.53618 30.7097 2.6842 33.3333 2.6842C39.9607 2.6842 45.3333 8.12075 45.3333 14.8271C45.3333 17.5051 44.4766 19.9806 43.0254 21.9883Z" fill="#FEB137"/>
<path fill-rule="evenodd" clip-rule="evenodd" d="M30 12.1429C30 12.1429 30 12.1429 30 12.1429C30 6.77782 25.702 2.42859 20.4 2.42859C15.0981 2.42859 10.8 6.77782 10.8 12.1429C10.8 12.1806 10.8002 12.2183 10.8007 12.2559C7.38977 12.8629 4.80005 15.8433 4.80005 19.4286C4.80005 19.5731 4.80426 19.7166 4.81255 19.859C2.00612 20.8717 0 23.5587 0 26.7143C0 30.7381 3.26193 34 7.28572 34H35.9143C39.9381 34 43.2 30.7381 43.2 26.7143C43.2 23.5587 41.1939 20.8718 38.3875 19.8591C38.3958 19.7166 38.4 19.5731 38.4 19.4286C38.4 15.4048 35.1381 12.1429 31.1143 12.1429H30Z" fill="#3258E8"/>
<path fill-rule="evenodd" clip-rule="evenodd" d="M31.1143 12.1429L30 12.1429C30 6.77782 25.702 2.42859 20.4 2.42859C17.6479 2.42859 15.1663 3.60044 13.4159 5.47794C14.4683 5.0767 15.6088 4.85718 16.8 4.85718C22.1019 4.85718 26.4 9.20641 26.4 14.5715V14.5715H27.5142C31.538 14.5715 34.8 17.8335 34.8 21.8572C34.8 22.0017 34.7957 22.1453 34.7874 22.2877C37.5939 23.3004 39.6 25.9874 39.6 29.1429C39.6 30.8659 39.0019 32.4492 38.002 33.6965C41.0084 32.7989 43.2 30.0125 43.2 26.7143C43.2 23.5588 41.1939 20.8718 38.3875 19.8591C38.3958 19.7167 38.4 19.5731 38.4 19.4286C38.4 15.4048 35.1381 12.1429 31.1143 12.1429ZM6.39801 14.875C6.65968 14.7969 6.92751 14.7331 7.20062 14.6845C7.20019 14.6469 7.19998 14.6092 7.19998 14.5715C7.19998 14.3829 7.20529 14.1955 7.21577 14.0096C6.92033 14.2753 6.64674 14.5648 6.39801 14.875Z" fill="#2042BE"/>
</svg>
